<?xml version="1.0" standalone="no"?>
<!DOCTYPE svg PUBLIC "-//W3C//DTD SVG 20010904//EN"
 "http://www.w3.org/TR/2001/REC-SVG-20010904/DTD/svg10.dtd">
<svg version="1.0" xmlns="http://www.w3.org/2000/svg"
 width="364.000000pt" height="368.000000pt" viewBox="0 0 364.000000 368.000000"
 preserveAspectRatio="xMidYMid meet">
<metadata>
Created by potrace 1.16, written by Peter Selinger 2001-2019
</metadata>
<g transform="translate(0.000000,368.000000) scale(0.100000,-0.100000)"
fill="#000000" stroke="none">
<path d="M1352 3390 c-156 -23 -304 -105 -404 -224 -59 -71 -128 -199 -150
-279 -7 -27 -18 -47 -26 -47 -7 0 -84 32 -170 71 -229 103 -209 97 -233 72
-15 -15 -20 -28 -16 -46 5 -19 30 -35 124 -79 65 -30 154 -70 199 -88 l81 -33
6 -121 c3 -73 14 -153 26 -201 41 -155 133 -308 230 -382 27 -21 50 -41 50
-45 1 -5 -192 -8 -428 -8 -428 0 -428 0 -461 -23 -98 -65 -96 -208 3 -262 32
-18 38 -26 47 -75 47 -236 100 -382 183 -506 139 -209 301 -341 540 -443 45
-19 50 -26 82 -98 55 -123 70 -147 111 -170 l39 -23 658 0 c723 0 703 -2 749
61 14 19 42 75 62 124 21 50 43 95 50 102 6 6 47 30 91 53 225 118 407 308
509 532 44 96 61 152 92 303 13 66 28 121 32 123 4 1 21 11 39 22 90 55 87
195 -7 257 l-33 23 -615 0 c-364 0 -612 4 -606 9 5 5 68 33 139 62 145 59 384
178 517 258 137 81 152 133 66 228 -81 90 -271 266 -403 372 -462 372 -844
529 -1173 481z m228 -101 c259 -32 590 -210 945 -508 93 -78 355 -330 355
-341 0 -3 -53 -36 -117 -72 -319 -179 -610 -301 -868 -364 -91 -22 -121 -24
-327 -24 -220 0 -229 1 -300 26 -218 79 -348 244 -393 500 -14 81 -20 184 -11
184 2 0 91 -29 198 -64 203 -68 401 -121 581 -155 162 -31 197 -27 197 25 0
35 -22 45 -159 70 -71 13 -192 40 -268 59 -184 47 -533 165 -533 180 0 24 40
127 77 198 77 146 222 252 384 282 94 17 134 18 239 4z m1847 -1435 c15 -24
15 -29 2 -53 l-15 -26 -1594 0 -1594 0 -15 26 c-13 24 -13 29 2 53 l17 26
1590 0 1590 0 17 -26z m-112 -206 c-3 -13 -14 -63 -25 -113 -19 -88 -50 -189
-68 -220 -8 -15 -10 -15 -21 -1 -8 9 -27 16 -42 16 -22 0 -32 -6 -39 -26 -13
-33 -13 -120 0 -144 19 -36 -131 -198 -276 -298 -17 -12 -66 -39 -110 -61 -43
-21 -89 -50 -101 -63 -12 -13 -43 -70 -68 -127 -25 -57 -50 -110 -56 -118 -9
-11 -127 -13 -654 -13 -354 0 -651 3 -660 6 -13 6 -55 81 -55 100 0 2 190 4
423 4 457 0 467 1 467 54 0 46 2 46 -480 46 l-457 0 -21 23 c-12 13 -57 39
-100 57 -185 81 -323 188 -439 343 -17 22 -20 34 -13 48 13 23 13 110 0 143
-7 20 -17 26 -39 26 -15 0 -34 -7 -42 -16 -11 -14 -13 -14 -21 1 -18 31 -49
132 -68 220 -11 50 -22 100 -25 113 l-5 22 1500 0 1500 0 -5 -22z"/>
<path d="M2040 2500 c-24 -24 -24 -29 -4 -58 14 -21 23 -22 129 -22 103 0 115
2 125 19 14 28 13 38 -10 61 -17 17 -33 20 -120 20 -87 0 -103 -3 -120 -20z"/>
<path d="M730 1332 c-25 -9 -30 -24 -30 -102 0 -81 9 -100 46 -100 36 0 45 22
42 105 -3 65 -6 80 -23 90 -11 7 -27 10 -35 7z"/>
<path d="M997 1333 c-24 -6 -37 -43 -37 -106 0 -61 20 -97 54 -97 38 0 47 21
44 105 -3 65 -6 80 -23 90 -11 6 -28 10 -38 8z"/>
<path d="M2601 1323 c-18 -12 -21 -25 -21 -92 0 -82 9 -101 46 -101 34 0 54
37 54 97 0 91 -32 130 -79 96z"/>
<path d="M2880 1332 c-25 -9 -30 -24 -30 -102 0 -81 9 -100 46 -100 36 0 45
22 42 105 -3 65 -6 80 -23 90 -11 7 -27 10 -35 7z"/>
<path d="M1240 1311 c-5 -11 -10 -49 -10 -84 0 -69 16 -97 56 -97 35 0 44 21
44 100 0 46 -5 81 -12 88 -19 19 -66 15 -78 -7z"/>
<path d="M1510 1311 c-16 -32 -13 -147 6 -165 21 -22 61 -20 74 3 14 27 13
154 -2 169 -19 19 -66 15 -78 -7z"/>
<path d="M1782 1318 c-7 -7 -12 -41 -12 -84 0 -77 13 -104 50 -104 37 0 50 27
50 104 0 79 -9 96 -50 96 -14 0 -31 -5 -38 -12z"/>
<path d="M2052 1318 c-15 -15 -16 -142 -2 -169 13 -23 53 -25 74 -3 19 18 22
133 6 165 -12 22 -59 26 -78 7z"/>
<path d="M2322 1318 c-7 -7 -12 -42 -12 -88 0 -80 9 -100 45 -100 38 0 55 31
55 99 0 34 -5 71 -10 82 -12 22 -59 26 -78 7z"/>
<path d="M2162 678 c-19 -19 -14 -55 10 -72 17 -12 49 -16 133 -16 84 0 116 4
133 16 24 17 29 53 10 72 -17 17 -269 17 -286 0z"/>
</g>
</svg>
